<?xml version="1.0" encoding="utf-8" standalone="no"?>
<!DOCTYPE svg PUBLIC "-//W3C//DTD SVG 1.1//EN"
  "http://www.w3.org/Graphics/SVG/1.1/DTD/svg11.dtd">
<svg xmlns:xlink="http://www.w3.org/1999/xlink" width="1161.254688pt" height="511.271094pt" viewBox="0 0 1161.254688 511.271094" xmlns="http://www.w3.org/2000/svg" version="1.1">
 <metadata>
  <rdf:RDF xmlns:dc="http://purl.org/dc/elements/1.1/" xmlns:cc="http://creativecommons.org/ns#" xmlns:rdf="http://www.w3.org/1999/02/22-rdf-syntax-ns#">
   <cc:Work>
    <dc:type rdf:resource="http://purl.org/dc/dcmitype/StillImage"/>
    <dc:date>2023-03-19T12:07:34.235106</dc:date>
    <dc:format>image/svg+xml</dc:format>
    <dc:creator>
     <cc:Agent>
      <dc:title>Matplotlib v3.5.1, https://matplotlib.org/</dc:title>
     </cc:Agent>
    </dc:creator>
   </cc:Work>
  </rdf:RDF>
 </metadata>
 <defs>
  <style type="text/css">*{stroke-linejoin: round; stroke-linecap: butt}</style>
 </defs>
 <g id="figure_1">
  <g id="patch_1">
   <path d="M 0 511.271094 
L 1161.254688 511.271094 
L 1161.254688 0 
L 0 0 
L 0 511.271094 
z
" style="fill: none"/>
  </g>
  <g id="axes_1">
   <g id="patch_2">
    <path d="M 38.054688 464.036719 
L 574.593149 464.036719 
L 574.593149 29.156719 
L 38.054688 29.156719 
z
" style="fill: #ffffff"/>
   </g>
   <g id="matplotlib.axis_1">
    <g id="xtick_1">
     <g id="line2d_1">
      <path d="M 57.490898 464.036719 
L 57.490898 29.156719 
" clip-path="url(#p4e6ae8074d)" style="fill: none; stroke: #b0b0b0; stroke-width: 0.8; stroke-linecap: square"/>
     </g>
     <g id="line2d_2">
      <defs>
       <path id="m32bfdbfc13" d="M 0 0 
L 0 3.5 
" style="stroke: #000000; stroke-width: 0.8"/>
      </defs>
      <g>
       <use xlink:href="#m32bfdbfc13" x="57.490898" y="464.036719" style="stroke: #000000; stroke-width: 0.8"/>
      </g>
     </g>
     <g id="text_1">
      <!-- 0 -->
      <g transform="translate(52.719023 482.434375)scale(0.15 -0.15)">
       <defs>
        <path id="DejaVuSans-30" d="M 2034 4250 
Q 1547 4250 1301 3770 
Q 1056 3291 1056 2328 
Q 1056 1369 1301 889 
Q 1547 409 2034 409 
Q 2525 409 2770 889 
Q 3016 1369 3016 2328 
Q 3016 3291 2770 3770 
Q 2525 4250 2034 4250 
z
M 2034 4750 
Q 2819 4750 3233 4129 
Q 3647 3509 3647 2328 
Q 3647 1150 3233 529 
Q 2819 -91 2034 -91 
Q 1250 -91 836 529 
Q 422 1150 422 2328 
Q 422 3509 836 4129 
Q 1250 4750 2034 4750 
z
" transform="scale(0.015625)"/>
       </defs>
       <use xlink:href="#DejaVuSans-30"/>
      </g>
     </g>
    </g>
    <g id="xtick_2">
     <g id="line2d_3">
      <path d="M 119.38966 464.036719 
L 119.38966 29.156719 
" clip-path="url(#p4e6ae8074d)" style="fill: none; stroke: #b0b0b0; stroke-width: 0.8; stroke-linecap: square"/>
     </g>
     <g id="line2d_4">
      <g>
       <use xlink:href="#m32bfdbfc13" x="119.38966" y="464.036719" style="stroke: #000000; stroke-width: 0.8"/>
      </g>
     </g>
     <g id="text_2">
      <!-- 25 -->
      <g transform="translate(109.84591 482.434375)scale(0.15 -0.15)">
       <defs>
        <path id="DejaVuSans-32" d="M 1228 531 
L 3431 531 
L 3431 0 
L 469 0 
L 469 531 
Q 828 903 1448 1529 
Q 2069 2156 2228 2338 
Q 2531 2678 2651 2914 
Q 2772 3150 2772 3378 
Q 2772 3750 2511 3984 
Q 2250 4219 1831 4219 
Q 1534 4219 1204 4116 
Q 875 4013 500 3803 
L 500 4441 
Q 881 4594 1212 4672 
Q 1544 4750 1819 4750 
Q 2544 4750 2975 4387 
Q 3406 4025 3406 3419 
Q 3406 3131 3298 2873 
Q 3191 2616 2906 2266 
Q 2828 2175 2409 1742 
Q 1991 1309 1228 531 
z
" transform="scale(0.015625)"/>
        <path id="DejaVuSans-35" d="M 691 4666 
L 3169 4666 
L 3169 4134 
L 1269 4134 
L 1269 2991 
Q 1406 3038 1543 3061 
Q 1681 3084 1819 3084 
Q 2600 3084 3056 2656 
Q 3513 2228 3513 1497 
Q 3513 744 3044 326 
Q 2575 -91 1722 -91 
Q 1428 -91 1123 -41 
Q 819 9 494 109 
L 494 744 
Q 775 591 1075 516 
Q 1375 441 1709 441 
Q 2250 441 2565 725 
Q 2881 1009 2881 1497 
Q 2881 1984 2565 2268 
Q 2250 2553 1709 2553 
Q 1456 2553 1204 2497 
Q 953 2441 691 2322 
L 691 4666 
z
" transform="scale(0.015625)"/>
       </defs>
       <use xlink:href="#DejaVuSans-32"/>
       <use xlink:href="#DejaVuSans-35" x="63.623047"/>
      </g>
     </g>
    </g>
    <g id="xtick_3">
     <g id="line2d_5">
      <path d="M 181.288421 464.036719 
L 181.288421 29.156719 
" clip-path="url(#p4e6ae8074d)" style="fill: none; stroke: #b0b0b0; stroke-width: 0.8; stroke-linecap: square"/>
     </g>
     <g id="line2d_6">
      <g>
       <use xlink:href="#m32bfdbfc13" x="181.288421" y="464.036719" style="stroke: #000000; stroke-width: 0.8"/>
      </g>
     </g>
     <g id="text_3">
      <!-- 50 -->
      <g transform="translate(171.744671 482.434375)scale(0.15 -0.15)">
       <use xlink:href="#DejaVuSans-35"/>
       <use xlink:href="#DejaVuSans-30" x="63.623047"/>
      </g>
     </g>
    </g>
    <g id="xtick_4">
     <g id="line2d_7">
      <path d="M 243.187182 464.036719 
L 243.187182 29.156719 
" clip-path="url(#p4e6ae8074d)" style="fill: none; stroke: #b0b0b0; stroke-width: 0.8; stroke-linecap: square"/>
     </g>
     <g id="line2d_8">
      <g>
       <use xlink:href="#m32bfdbfc13" x="243.187182" y="464.036719" style="stroke: #000000; stroke-width: 0.8"/>
      </g>
     </g>
     <g id="text_4">
      <!-- 75 -->
      <g transform="translate(233.643432 482.434375)scale(0.15 -0.15)">
       <defs>
        <path id="DejaVuSans-37" d="M 525 4666 
L 3525 4666 
L 3525 4397 
L 1831 0 
L 1172 0 
L 2766 4134 
L 525 4134 
L 525 4666 
z
" transform="scale(0.015625)"/>
       </defs>
       <use xlink:href="#DejaVuSans-37"/>
       <use xlink:href="#DejaVuSans-35" x="63.623047"/>
      </g>
     </g>
    </g>
    <g id="xtick_5">
     <g id="line2d_9">
      <path d="M 305.085943 464.036719 
L 305.085943 29.156719 
" clip-path="url(#p4e6ae8074d)" style="fill: none; stroke: #b0b0b0; stroke-width: 0.8; stroke-linecap: square"/>
     </g>
     <g id="line2d_10">
      <g>
       <use xlink:href="#m32bfdbfc13" x="305.085943" y="464.036719" style="stroke: #000000; stroke-width: 0.8"/>
      </g>
     </g>
     <g id="text_5">
      <!-- 100 -->
      <g transform="translate(290.770318 482.434375)scale(0.15 -0.15)">
       <defs>
        <path id="DejaVuSans-31" d="M 794 531 
L 1825 531 
L 1825 4091 
L 703 3866 
L 703 4441 
L 1819 4666 
L 2450 4666 
L 2450 531 
L 3481 531 
L 3481 0 
L 794 0 
L 794 531 
z
" transform="scale(0.015625)"/>
       </defs>
       <use xlink:href="#DejaVuSans-31"/>
       <use xlink:href="#DejaVuSans-30" x="63.623047"/>
       <use xlink:href="#DejaVuSans-30" x="127.246094"/>
      </g>
     </g>
    </g>
    <g id="xtick_6">
     <g id="line2d_11">
      <path d="M 366.984704 464.036719 
L 366.984704 29.156719 
" clip-path="url(#p4e6ae8074d)" style="fill: none; stroke: #b0b0b0; stroke-width: 0.8; stroke-linecap: square"/>
     </g>
     <g id="line2d_12">
      <g>
       <use xlink:href="#m32bfdbfc13" x="366.984704" y="464.036719" style="stroke: #000000; stroke-width: 0.8"/>
      </g>
     </g>
     <g id="text_6">
      <!-- 125 -->
      <g transform="translate(352.669079 482.434375)scale(0.15 -0.15)">
       <use xlink:href="#DejaVuSans-31"/>
       <use xlink:href="#DejaVuSans-32" x="63.623047"/>
       <use xlink:href="#DejaVuSans-35" x="127.246094"/>
      </g>
     </g>
    </g>
    <g id="xtick_7">
     <g id="line2d_13">
      <path d="M 428.883465 464.036719 
L 428.883465 29.156719 
" clip-path="url(#p4e6ae8074d)" style="fill: none; stroke: #b0b0b0; stroke-width: 0.8; stroke-linecap: square"/>
     </g>
     <g id="line2d_14">
      <g>
       <use xlink:href="#m32bfdbfc13" x="428.883465" y="464.036719" style="stroke: #000000; stroke-width: 0.8"/>
      </g>
     </g>
     <g id="text_7">
      <!-- 150 -->
      <g transform="translate(414.56784 482.434375)scale(0.15 -0.15)">
       <use xlink:href="#DejaVuSans-31"/>
       <use xlink:href="#DejaVuSans-35" x="63.623047"/>
       <use xlink:href="#DejaVuSans-30" x="127.246094"/>
      </g>
     </g>
    </g>
    <g id="xtick_8">
     <g id="line2d_15">
      <path d="M 490.782226 464.036719 
L 490.782226 29.156719 
" clip-path="url(#p4e6ae8074d)" style="fill: none; stroke: #b0b0b0; stroke-width: 0.8; stroke-linecap: square"/>
     </g>
     <g id="line2d_16">
      <g>
       <use xlink:href="#m32bfdbfc13" x="490.782226" y="464.036719" style="stroke: #000000; stroke-width: 0.8"/>
      </g>
     </g>
     <g id="text_8">
      <!-- 175 -->
      <g transform="translate(476.466601 482.434375)scale(0.15 -0.15)">
       <use xlink:href="#DejaVuSans-31"/>
       <use xlink:href="#DejaVuSans-37" x="63.623047"/>
       <use xlink:href="#DejaVuSans-35" x="127.246094"/>
      </g>
     </g>
    </g>
    <g id="xtick_9">
     <g id="line2d_17">
      <path d="M 552.680988 464.036719 
L 552.680988 29.156719 
" clip-path="url(#p4e6ae8074d)" style="fill: none; stroke: #b0b0b0; stroke-width: 0.8; stroke-linecap: square"/>
     </g>
     <g id="line2d_18">
      <g>
       <use xlink:href="#m32bfdbfc13" x="552.680988" y="464.036719" style="stroke: #000000; stroke-width: 0.8"/>
      </g>
     </g>
     <g id="text_9">
      <!-- 200 -->
      <g transform="translate(538.365363 482.434375)scale(0.15 -0.15)">
       <use xlink:href="#DejaVuSans-32"/>
       <use xlink:href="#DejaVuSans-30" x="63.623047"/>
       <use xlink:href="#DejaVuSans-30" x="127.246094"/>
      </g>
     </g>
    </g>
    <g id="text_10">
     <!-- Epoch -->
     <g transform="translate(283.357512 500.951562)scale(0.15 -0.15)">
      <defs>
       <path id="DejaVuSans-45" d="M 628 4666 
L 3578 4666 
L 3578 4134 
L 1259 4134 
L 1259 2753 
L 3481 2753 
L 3481 2222 
L 1259 2222 
L 1259 531 
L 3634 531 
L 3634 0 
L 628 0 
L 628 4666 
z
" transform="scale(0.015625)"/>
       <path id="DejaVuSans-70" d="M 1159 525 
L 1159 -1331 
L 581 -1331 
L 581 3500 
L 1159 3500 
L 1159 2969 
Q 1341 3281 1617 3432 
Q 1894 3584 2278 3584 
Q 2916 3584 3314 3078 
Q 3713 2572 3713 1747 
Q 3713 922 3314 415 
Q 2916 -91 2278 -91 
Q 1894 -91 1617 61 
Q 1341 213 1159 525 
z
M 3116 1747 
Q 3116 2381 2855 2742 
Q 2594 3103 2138 3103 
Q 1681 3103 1420 2742 
Q 1159 2381 1159 1747 
Q 1159 1113 1420 752 
Q 1681 391 2138 391 
Q 2594 391 2855 752 
Q 3116 1113 3116 1747 
z
" transform="scale(0.015625)"/>
       <path id="DejaVuSans-6f" d="M 1959 3097 
Q 1497 3097 1228 2736 
Q 959 2375 959 1747 
Q 959 1119 1226 758 
Q 1494 397 1959 397 
Q 2419 397 2687 759 
Q 2956 1122 2956 1747 
Q 2956 2369 2687 2733 
Q 2419 3097 1959 3097 
z
M 1959 3584 
Q 2709 3584 3137 3096 
Q 3566 2609 3566 1747 
Q 3566 888 3137 398 
Q 2709 -91 1959 -91 
Q 1206 -91 779 398 
Q 353 888 353 1747 
Q 353 2609 779 3096 
Q 1206 3584 1959 3584 
z
" transform="scale(0.015625)"/>
       <path id="DejaVuSans-63" d="M 3122 3366 
L 3122 2828 
Q 2878 2963 2633 3030 
Q 2388 3097 2138 3097 
Q 1578 3097 1268 2742 
Q 959 2388 959 1747 
Q 959 1106 1268 751 
Q 1578 397 2138 397 
Q 2388 397 2633 464 
Q 2878 531 3122 666 
L 3122 134 
Q 2881 22 2623 -34 
Q 2366 -91 2075 -91 
Q 1284 -91 818 406 
Q 353 903 353 1747 
Q 353 2603 823 3093 
Q 1294 3584 2113 3584 
Q 2378 3584 2631 3529 
Q 2884 3475 3122 3366 
z
" transform="scale(0.015625)"/>
       <path id="DejaVuSans-68" d="M 3513 2113 
L 3513 0 
L 2938 0 
L 2938 2094 
Q 2938 2591 2744 2837 
Q 2550 3084 2163 3084 
Q 1697 3084 1428 2787 
Q 1159 2491 1159 1978 
L 1159 0 
L 581 0 
L 581 4863 
L 1159 4863 
L 1159 2956 
Q 1366 3272 1645 3428 
Q 1925 3584 2291 3584 
Q 2894 3584 3203 3211 
Q 3513 2838 3513 2113 
z
" transform="scale(0.015625)"/>
      </defs>
      <use xlink:href="#DejaVuSans-45"/>
      <use xlink:href="#DejaVuSans-70" x="63.183594"/>
      <use xlink:href="#DejaVuSans-6f" x="126.660156"/>
      <use xlink:href="#DejaVuSans-63" x="187.841797"/>
      <use xlink:href="#DejaVuSans-68" x="242.822266"/>
     </g>
    </g>
   </g>
   <g id="matplotlib.axis_2">
    <g id="ytick_1">
     <g id="line2d_19">
      <path d="M 38.054688 450.008332 
L 574.593149 450.008332 
" clip-path="url(#p4e6ae8074d)" style="fill: none; stroke: #b0b0b0; stroke-width: 0.8; stroke-linecap: square"/>
     </g>
     <g id="line2d_20">
      <defs>
       <path id="mba4d178517" d="M 0 0 
L -3.5 0 
" style="stroke: #000000; stroke-width: 0.8"/>
      </defs>
      <g>
       <use xlink:href="#mba4d178517" x="38.054688" y="450.008332" style="stroke: #000000; stroke-width: 0.8"/>
      </g>
     </g>
     <g id="text_11">
      <!-- 0.3 -->
      <g transform="translate(7.2 455.70716)scale(0.15 -0.15)">
       <defs>
        <path id="DejaVuSans-2e" d="M 684 794 
L 1344 794 
L 1344 0 
L 684 0 
L 684 794 
z
" transform="scale(0.015625)"/>
        <path id="DejaVuSans-33" d="M 2597 2516 
Q 3050 2419 3304 2112 
Q 3559 1806 3559 1356 
Q 3559 666 3084 287 
Q 2609 -91 1734 -91 
Q 1441 -91 1130 -33 
Q 819 25 488 141 
L 488 750 
Q 750 597 1062 519 
Q 1375 441 1716 441 
Q 2309 441 2620 675 
Q 2931 909 2931 1356 
Q 2931 1769 2642 2001 
Q 2353 2234 1838 2234 
L 1294 2234 
L 1294 2753 
L 1863 2753 
Q 2328 2753 2575 2939 
Q 2822 3125 2822 3475 
Q 2822 3834 2567 4026 
Q 2313 4219 1838 4219 
Q 1578 4219 1281 4162 
Q 984 4106 628 3988 
L 628 4550 
Q 988 4650 1302 4700 
Q 1616 4750 1894 4750 
Q 2613 4750 3031 4423 
Q 3450 4097 3450 3541 
Q 3450 3153 3228 2886 
Q 3006 2619 2597 2516 
z
" transform="scale(0.015625)"/>
       </defs>
       <use xlink:href="#DejaVuSans-30"/>
       <use xlink:href="#DejaVuSans-2e" x="63.623047"/>
       <use xlink:href="#DejaVuSans-33" x="95.410156"/>
      </g>
     </g>
    </g>
    <g id="ytick_2">
     <g id="line2d_21">
      <path d="M 38.054688 379.866396 
L 574.593149 379.866396 
" clip-path="url(#p4e6ae8074d)" style="fill: none; stroke: #b0b0b0; stroke-width: 0.8; stroke-linecap: square"/>
     </g>
     <g id="line2d_22">
      <g>
       <use xlink:href="#mba4d178517" x="38.054688" y="379.866396" style="stroke: #000000; stroke-width: 0.8"/>
      </g>
     </g>
     <g id="text_12">
      <!-- 0.4 -->
      <g transform="translate(7.2 385.565224)scale(0.15 -0.15)">
       <defs>
        <path id="DejaVuSans-34" d="M 2419 4116 
L 825 1625 
L 2419 1625 
L 2419 4116 
z
M 2253 4666 
L 3047 4666 
L 3047 1625 
L 3713 1625 
L 3713 1100 
L 3047 1100 
L 3047 0 
L 2419 0 
L 2419 1100 
L 313 1100 
L 313 1709 
L 2253 4666 
z
" transform="scale(0.015625)"/>
       </defs>
       <use xlink:href="#DejaVuSans-30"/>
       <use xlink:href="#DejaVuSans-2e" x="63.623047"/>
       <use xlink:href="#DejaVuSans-34" x="95.410156"/>
      </g>
     </g>
    </g>
    <g id="ytick_3">
     <g id="line2d_23">
      <path d="M 38.054688 309.724461 
L 574.593149 309.724461 
" clip-path="url(#p4e6ae8074d)" style="fill: none; stroke: #b0b0b0; stroke-width: 0.8; stroke-linecap: square"/>
     </g>
     <g id="line2d_24">
      <g>
       <use xlink:href="#mba4d178517" x="38.054688" y="309.724461" style="stroke: #000000; stroke-width: 0.8"/>
      </g>
     </g>
     <g id="text_13">
      <!-- 0.5 -->
      <g transform="translate(7.2 315.423289)scale(0.15 -0.15)">
       <use xlink:href="#DejaVuSans-30"/>
       <use xlink:href="#DejaVuSans-2e" x="63.623047"/>
       <use xlink:href="#DejaVuSans-35" x="95.410156"/>
      </g>
     </g>
    </g>
    <g id="ytick_4">
     <g id="line2d_25">
      <path d="M 38.054688 239.582525 
L 574.593149 239.582525 
" clip-path="url(#p4e6ae8074d)" style="fill: none; stroke: #b0b0b0; stroke-width: 0.8; stroke-linecap: square"/>
     </g>
     <g id="line2d_26">
      <g>
       <use xlink:href="#mba4d178517" x="38.054688" y="239.582525" style="stroke: #000000; stroke-width: 0.8"/>
      </g>
     </g>
     <g id="text_14">
      <!-- 0.6 -->
      <g transform="translate(7.2 245.281353)scale(0.15 -0.15)">
       <defs>
        <path id="DejaVuSans-36" d="M 2113 2584 
Q 1688 2584 1439 2293 
Q 1191 2003 1191 1497 
Q 1191 994 1439 701 
Q 1688 409 2113 409 
Q 2538 409 2786 701 
Q 3034 994 3034 1497 
Q 3034 2003 2786 2293 
Q 2538 2584 2113 2584 
z
M 3366 4563 
L 3366 3988 
Q 3128 4100 2886 4159 
Q 2644 4219 2406 4219 
Q 1781 4219 1451 3797 
Q 1122 3375 1075 2522 
Q 1259 2794 1537 2939 
Q 1816 3084 2150 3084 
Q 2853 3084 3261 2657 
Q 3669 2231 3669 1497 
Q 3669 778 3244 343 
Q 2819 -91 2113 -91 
Q 1303 -91 875 529 
Q 447 1150 447 2328 
Q 447 3434 972 4092 
Q 1497 4750 2381 4750 
Q 2619 4750 2861 4703 
Q 3103 4656 3366 4563 
z
" transform="scale(0.015625)"/>
       </defs>
       <use xlink:href="#DejaVuSans-30"/>
       <use xlink:href="#DejaVuSans-2e" x="63.623047"/>
       <use xlink:href="#DejaVuSans-36" x="95.410156"/>
      </g>
     </g>
    </g>
    <g id="ytick_5">
     <g id="line2d_27">
      <path d="M 38.054688 169.44059 
L 574.593149 169.44059 
" clip-path="url(#p4e6ae8074d)" style="fill: none; stroke: #b0b0b0; stroke-width: 0.8; stroke-linecap: square"/>
     </g>
     <g id="line2d_28">
      <g>
       <use xlink:href="#mba4d178517" x="38.054688" y="169.44059" style="stroke: #000000; stroke-width: 0.8"/>
      </g>
     </g>
     <g id="text_15">
      <!-- 0.7 -->
      <g transform="translate(7.2 175.139418)scale(0.15 -0.15)">
       <use xlink:href="#DejaVuSans-30"/>
       <use xlink:href="#DejaVuSans-2e" x="63.623047"/>
       <use xlink:href="#DejaVuSans-37" x="95.410156"/>
      </g>
     </g>
    </g>
    <g id="ytick_6">
     <g id="line2d_29">
      <path d="M 38.054688 99.298654 
L 574.593149 99.298654 
" clip-path="url(#p4e6ae8074d)" style="fill: none; stroke: #b0b0b0; stroke-width: 0.8; stroke-linecap: square"/>
     </g>
     <g id="line2d_30">
      <g>
       <use xlink:href="#mba4d178517" x="38.054688" y="99.298654" style="stroke: #000000; stroke-width: 0.8"/>
      </g>
     </g>
     <g id="text_16">
      <!-- 0.8 -->
      <g transform="translate(7.2 104.997482)scale(0.15 -0.15)">
       <defs>
        <path id="DejaVuSans-38" d="M 2034 2216 
Q 1584 2216 1326 1975 
Q 1069 1734 1069 1313 
Q 1069 891 1326 650 
Q 1584 409 2034 409 
Q 2484 409 2743 651 
Q 3003 894 3003 1313 
Q 3003 1734 2745 1975 
Q 2488 2216 2034 2216 
z
M 1403 2484 
Q 997 2584 770 2862 
Q 544 3141 544 3541 
Q 544 4100 942 4425 
Q 1341 4750 2034 4750 
Q 2731 4750 3128 4425 
Q 3525 4100 3525 3541 
Q 3525 3141 3298 2862 
Q 3072 2584 2669 2484 
Q 3125 2378 3379 2068 
Q 3634 1759 3634 1313 
Q 3634 634 3220 271 
Q 2806 -91 2034 -91 
Q 1263 -91 848 271 
Q 434 634 434 1313 
Q 434 1759 690 2068 
Q 947 2378 1403 2484 
z
M 1172 3481 
Q 1172 3119 1398 2916 
Q 1625 2713 2034 2713 
Q 2441 2713 2670 2916 
Q 2900 3119 2900 3481 
Q 2900 3844 2670 4047 
Q 2441 4250 2034 4250 
Q 1625 4250 1398 4047 
Q 1172 3844 1172 3481 
z
" transform="scale(0.015625)"/>
       </defs>
       <use xlink:href="#DejaVuSans-30"/>
       <use xlink:href="#DejaVuSans-2e" x="63.623047"/>
       <use xlink:href="#DejaVuSans-38" x="95.410156"/>
      </g>
     </g>
    </g>
    <g id="ytick_7">
     <g id="line2d_31">
      <path d="M 38.054688 29.156719 
L 574.593149 29.156719 
" clip-path="url(#p4e6ae8074d)" style="fill: none; stroke: #b0b0b0; stroke-width: 0.8; stroke-linecap: square"/>
     </g>
     <g id="line2d_32">
      <g>
       <use xlink:href="#mba4d178517" x="38.054688" y="29.156719" style="stroke: #000000; stroke-width: 0.8"/>
      </g>
     </g>
     <g id="text_17">
      <!-- 0.9 -->
      <g transform="translate(7.2 34.855547)scale(0.15 -0.15)">
       <defs>
        <path id="DejaVuSans-39" d="M 703 97 
L 703 672 
Q 941 559 1184 500 
Q 1428 441 1663 441 
Q 2288 441 2617 861 
Q 2947 1281 2994 2138 
Q 2813 1869 2534 1725 
Q 2256 1581 1919 1581 
Q 1219 1581 811 2004 
Q 403 2428 403 3163 
Q 403 3881 828 4315 
Q 1253 4750 1959 4750 
Q 2769 4750 3195 4129 
Q 3622 3509 3622 2328 
Q 3622 1225 3098 567 
Q 2575 -91 1691 -91 
Q 1453 -91 1209 -44 
Q 966 3 703 97 
z
M 1959 2075 
Q 2384 2075 2632 2365 
Q 2881 2656 2881 3163 
Q 2881 3666 2632 3958 
Q 2384 4250 1959 4250 
Q 1534 4250 1286 3958 
Q 1038 3666 1038 3163 
Q 1038 2656 1286 2365 
Q 1534 2075 1959 2075 
z
" transform="scale(0.015625)"/>
       </defs>
       <use xlink:href="#DejaVuSans-30"/>
       <use xlink:href="#DejaVuSans-2e" x="63.623047"/>
       <use xlink:href="#DejaVuSans-39" x="95.410156"/>
      </g>
     </g>
    </g>
   </g>
   <g id="line2d_33">
    <path d="M 70.996112 -1 
L 72.346601 1.894886 
L 74.822552 6.126783 
L 77.298502 12.790267 
L 79.774453 13.398164 
L 82.250403 19.78108 
L 84.726353 23.147893 
L 87.202304 30.068564 
L 89.678254 38.25179 
L 92.154205 43.933286 
L 94.630155 43.886525 
L 97.106106 53.542732 
L 99.582056 60.697209 
L 102.058007 68.366061 
L 104.533957 74.047557 
L 109.485858 95.019996 
L 111.961808 93.430112 
L 116.913709 112.812667 
L 119.38966 127.542474 
L 121.86561 124.783557 
L 124.341561 124.456228 
L 126.817511 121.744074 
L 129.293461 124.923841 
L 134.245362 151.040022 
L 136.721313 166.494628 
L 139.197263 162.239351 
L 141.673214 160.626086 
L 144.149164 159.761003 
L 146.625115 177.857622 
L 149.101065 181.76219 
L 151.577015 179.728074 
L 154.052966 175.519557 
L 156.528916 175.145467 
L 159.004867 177.296486 
L 161.480817 178.933132 
L 163.956768 175.96379 
L 166.432718 179.774835 
L 168.908669 175.355893 
L 171.384619 171.498086 
L 173.860569 163.548667 
L 176.33652 174.911661 
L 178.81247 191.511919 
L 181.288421 197.216796 
L 183.764371 188.472435 
L 186.240322 179.026654 
L 188.716272 183.889828 
L 191.192223 185.129003 
L 193.668173 169.08988 
L 196.144123 164.39037 
L 198.620074 168.692409 
L 201.096024 185.129003 
L 203.571975 191.137828 
L 206.047925 182.183041 
L 208.523876 200.326422 
L 210.999826 203.856899 
L 213.475777 197.848074 
L 215.951727 193.429132 
L 218.427677 181.78557 
L 220.903628 200.700512 
L 223.379578 198.315686 
L 225.855529 207.340616 
L 228.331479 210.917854 
L 230.80743 214.892564 
L 233.28338 212.460977 
L 235.759331 206.545674 
L 238.235281 191.862628 
L 240.711231 172.690499 
L 243.187182 173.532203 
L 245.663132 183.141648 
L 248.139083 208.509648 
L 250.615033 210.894474 
L 253.090984 209.32797 
L 255.566934 207.995274 
L 258.042885 242.972719 
L 262.994785 327.774319 
L 265.470736 335.980925 
L 267.946686 339.347738 
L 270.422637 343.158783 
L 272.898587 345.169519 
L 275.374538 347.39068 
L 277.850488 350.687351 
L 280.326439 352.81499 
L 282.802389 355.410241 
L 285.278339 355.573906 
L 287.75429 355.36348 
L 290.23024 356.602654 
L 295.182141 356.064899 
L 300.134042 357.771686 
L 302.609993 359.221286 
L 305.085943 357.654783 
L 307.561893 358.449725 
L 310.037844 356.602654 
L 314.989745 358.706912 
L 317.465695 356.696177 
L 319.941646 358.075635 
L 322.417596 356.81308 
L 324.893547 362.214009 
L 327.369497 364.78588 
L 329.845448 366.469286 
L 332.321398 361.980203 
L 334.797348 355.106293 
L 337.273299 355.036151 
L 339.749249 361.115119 
L 342.2252 366.048435 
L 344.70115 364.248125 
L 347.177101 364.481932 
L 349.653051 363.757132 
L 352.129002 364.762499 
L 354.604952 363.570086 
L 357.080902 377.084099 
L 362.032803 407.759506 
L 364.508754 408.437545 
L 366.984704 409.326009 
L 369.460655 408.764874 
L 371.936605 409.700099 
L 374.412556 408.694732 
L 376.888506 408.320641 
L 379.364456 407.338654 
L 384.316357 408.040074 
L 386.792308 408.788254 
L 389.268258 408.811635 
L 391.744209 409.068822 
L 394.220159 408.928538 
L 396.69611 408.975299 
L 399.17206 406.941183 
L 404.123961 406.82428 
L 406.599911 408.554448 
L 409.075862 407.829648 
L 411.551812 407.221751 
L 414.027763 406.122861 
L 416.503713 405.37468 
L 418.979664 405.304538 
L 421.455614 406.403428 
L 423.931564 406.941183 
L 426.407515 406.496951 
L 428.883465 404.720022 
L 433.835366 402.872951 
L 441.263218 402.031248 
L 443.739168 402.569003 
L 446.215118 402.007867 
L 448.691069 401.189545 
L 451.167019 399.342474 
L 453.64297 399.342474 
L 456.11892 399.669803 
L 458.594871 400.628409 
L 461.070821 401.39997 
L 463.546772 398.641054 
L 466.022722 397.472022 
L 468.498672 393.918164 
L 470.974623 395.60157 
L 473.450573 396.045803 
L 475.926524 397.77597 
L 478.402474 397.799351 
L 480.878425 397.284977 
L 483.354375 399.20219 
L 485.830326 398.664435 
L 488.306276 399.856848 
L 490.782226 397.448641 
L 493.258177 396.490035 
L 495.734127 393.286886 
L 498.210078 392.258138 
L 500.686028 392.258138 
L 503.161979 392.585467 
L 505.637929 393.310267 
L 508.11388 393.099841 
L 515.541731 393.614216 
L 522.969582 392.936177 
L 525.445533 392.515325 
L 527.921483 390.574732 
L 530.397434 389.42908 
L 532.873384 389.616125 
L 535.349334 390.270783 
L 537.825285 390.411067 
L 540.301235 388.540616 
L 542.777186 387.301441 
L 545.253136 385.197183 
L 547.729087 385.290706 
L 550.205037 385.968745 
L 550.205037 385.968745 
" clip-path="url(#p4e6ae8074d)" style="fill: none; stroke: #6495ed; stroke-width: 3; stroke-linecap: square"/>
   </g>
   <g id="line2d_34">
    <path d="M 62.442799 77.788461 
L 64.91875 113.069854 
L 67.3947 141.524099 
L 69.870651 173.649106 
L 72.346601 195.790577 
L 74.822552 220.19997 
L 77.298502 221.743093 
L 79.774453 233.877648 
L 82.250403 236.519661 
L 84.726353 246.175867 
L 87.202304 258.053235 
L 89.678254 264.132203 
L 92.154205 273.741648 
L 94.630155 266.376745 
L 97.106106 267.966628 
L 99.582056 264.529674 
L 102.058007 274.302783 
L 104.533957 273.063609 
L 107.009907 285.385209 
L 109.485858 276.757751 
L 111.961808 290.528951 
L 114.437759 281.246835 
L 116.913709 278.511299 
L 119.38966 277.248745 
L 121.86561 272.946706 
L 124.341561 291.791506 
L 126.817511 290.832899 
L 129.293461 297.613286 
L 131.769412 284.379841 
L 134.245362 282.486009 
L 136.721313 294.643945 
L 139.197263 292.329261 
L 141.673214 295.228461 
L 144.149164 287.23228 
L 146.625115 295.392125 
L 149.101065 289.126112 
L 151.577015 279.914138 
L 154.052966 283.187428 
L 156.528916 290.996564 
L 159.004867 309.560796 
L 161.480817 320.736745 
L 163.956768 324.828357 
L 166.432718 310.355738 
L 168.908669 290.973183 
L 171.384619 286.343816 
L 173.860569 290.762757 
L 176.33652 304.814525 
L 178.81247 311.244203 
L 181.288421 320.386035 
L 183.764371 304.019583 
L 186.240322 295.20508 
L 188.716272 297.940616 
L 191.192223 308.181338 
L 193.668173 314.470732 
L 196.144123 306.474551 
L 198.620074 307.082448 
L 201.096024 300.091635 
L 203.571975 296.935248 
L 206.047925 284.379841 
L 208.523876 285.876203 
L 210.999826 277.014938 
L 213.475777 292.750112 
L 215.951727 293.732099 
L 218.427677 299.249932 
L 220.903628 301.050241 
L 225.855529 320.993932 
L 228.331479 308.345003 
L 230.80743 292.913777 
L 233.28338 287.302422 
L 235.759331 296.958628 
L 238.235281 284.590267 
L 240.711231 280.498654 
L 243.187182 266.470267 
L 248.139083 290.178241 
L 250.615033 304.042964 
L 253.090984 302.10237 
L 255.566934 291.604461 
L 258.042885 335.934164 
L 260.518835 391.650241 
L 262.994785 442.923996 
L 265.470736 443.812461 
L 267.946686 442.947377 
L 270.422637 439.697467 
L 272.898587 436.938551 
L 275.374538 433.431454 
L 277.850488 431.420719 
L 280.326439 426.557545 
L 282.802389 422.933545 
L 285.278339 419.636874 
L 287.75429 418.163893 
L 290.23024 417.298809 
L 292.706191 415.404977 
L 295.182141 413.230577 
L 297.658092 407.759506 
L 302.609993 404.883686 
L 305.085943 401.984486 
L 307.561893 398.12668 
L 310.037844 398.12668 
L 312.513794 398.804719 
L 314.989745 398.47739 
L 317.465695 393.05308 
L 319.941646 392.024332 
L 322.417596 388.938086 
L 324.893547 388.844564 
L 327.369497 385.921983 
L 329.845448 386.623403 
L 332.321398 384.028151 
L 334.797348 387.324822 
L 337.273299 383.583919 
L 339.749249 384.893235 
L 342.2252 381.222474 
L 344.70115 379.819635 
L 347.177101 380.263867 
L 349.653051 380.474293 
L 352.129002 381.10557 
L 354.604952 378.697364 
L 357.080902 390.761777 
L 359.556853 403.504228 
L 362.032803 415.14779 
L 364.508754 412.482396 
L 366.984704 410.775609 
L 369.460655 408.764874 
L 371.936605 407.54908 
L 374.412556 406.777519 
L 379.364456 404.509596 
L 381.840407 402.078009 
L 384.316357 401.072641 
L 386.792308 400.488125 
L 391.744209 400.394603 
L 394.220159 399.506138 
L 396.69611 397.986396 
L 399.17206 395.882138 
L 401.64801 394.409157 
L 406.599911 392.281519 
L 409.075862 390.902061 
L 411.551812 391.089106 
L 414.027763 390.925441 
L 416.503713 391.463196 
L 418.979664 389.80317 
L 421.455614 387.862577 
L 423.931564 386.52988 
L 428.883465 385.220564 
L 431.359416 384.449003 
L 433.835366 384.191816 
L 436.311317 383.724203 
L 438.787267 383.911248 
L 441.263218 383.583919 
L 443.739168 383.724203 
L 448.691069 381.923893 
L 451.167019 381.199093 
L 453.64297 380.076822 
L 456.11892 379.562448 
L 458.594871 379.258499 
L 461.070821 380.404151 
L 463.546772 379.889777 
L 466.022722 379.492306 
L 468.498672 377.201003 
L 473.450573 374.93308 
L 475.926524 375.143506 
L 478.402474 373.951093 
L 480.878425 372.945725 
L 483.354375 371.65979 
L 485.830326 373.717286 
L 488.306276 374.769416 
L 490.782226 376.312538 
L 493.258177 376.686628 
L 495.734127 376.125493 
L 498.210078 375.049983 
L 500.686028 374.184899 
L 503.161979 374.301803 
L 505.637929 374.184899 
L 508.11388 373.249674 
L 510.58983 373.202912 
L 513.06578 374.184899 
L 515.541731 373.577003 
L 518.017681 371.192177 
L 520.493632 370.841467 
L 522.969582 371.589648 
L 525.445533 372.828822 
L 527.921483 370.818086 
L 532.873384 369.906241 
L 535.349334 371.122035 
L 537.825285 371.65979 
L 540.301235 371.589648 
L 542.777186 371.005132 
L 545.253136 368.643686 
L 547.729087 370.023145 
L 550.205037 368.573545 
L 550.205037 368.573545 
" clip-path="url(#p4e6ae8074d)" style="fill: none; stroke: #f08080; stroke-width: 3; stroke-linecap: square"/>
   </g>
   <g id="patch_3">
    <path d="M 38.054688 464.036719 
L 38.054688 29.156719 
" style="fill: none; stroke: #000000; stroke-width: 0.8; stroke-linejoin: miter; stroke-linecap: square"/>
   </g>
   <g id="patch_4">
    <path d="M 574.593149 464.036719 
L 574.593149 29.156719 
" style="fill: none; stroke: #000000; stroke-width: 0.8; stroke-linejoin: miter; stroke-linecap: square"/>
   </g>
   <g id="patch_5">
    <path d="M 38.054688 464.036719 
L 574.593149 464.036719 
" style="fill: none; stroke: #000000; stroke-width: 0.8; stroke-linejoin: miter; stroke-linecap: square"/>
   </g>
   <g id="patch_6">
    <path d="M 38.054688 29.156719 
L 574.593149 29.156719 
" style="fill: none; stroke: #000000; stroke-width: 0.8; stroke-linejoin: miter; stroke-linecap: square"/>
   </g>
   <g id="text_18">
    <!-- Test Error -->
    <g transform="translate(256.722903 23.156719)scale(0.21 -0.21)">
     <defs>
      <path id="DejaVuSans-54" d="M -19 4666 
L 3928 4666 
L 3928 4134 
L 2272 4134 
L 2272 0 
L 1638 0 
L 1638 4134 
L -19 4134 
L -19 4666 
z
" transform="scale(0.015625)"/>
      <path id="DejaVuSans-65" d="M 3597 1894 
L 3597 1613 
L 953 1613 
Q 991 1019 1311 708 
Q 1631 397 2203 397 
Q 2534 397 2845 478 
Q 3156 559 3463 722 
L 3463 178 
Q 3153 47 2828 -22 
Q 2503 -91 2169 -91 
Q 1331 -91 842 396 
Q 353 884 353 1716 
Q 353 2575 817 3079 
Q 1281 3584 2069 3584 
Q 2775 3584 3186 3129 
Q 3597 2675 3597 1894 
z
M 3022 2063 
Q 3016 2534 2758 2815 
Q 2500 3097 2075 3097 
Q 1594 3097 1305 2825 
Q 1016 2553 972 2059 
L 3022 2063 
z
" transform="scale(0.015625)"/>
      <path id="DejaVuSans-73" d="M 2834 3397 
L 2834 2853 
Q 2591 2978 2328 3040 
Q 2066 3103 1784 3103 
Q 1356 3103 1142 2972 
Q 928 2841 928 2578 
Q 928 2378 1081 2264 
Q 1234 2150 1697 2047 
L 1894 2003 
Q 2506 1872 2764 1633 
Q 3022 1394 3022 966 
Q 3022 478 2636 193 
Q 2250 -91 1575 -91 
Q 1294 -91 989 -36 
Q 684 19 347 128 
L 347 722 
Q 666 556 975 473 
Q 1284 391 1588 391 
Q 1994 391 2212 530 
Q 2431 669 2431 922 
Q 2431 1156 2273 1281 
Q 2116 1406 1581 1522 
L 1381 1569 
Q 847 1681 609 1914 
Q 372 2147 372 2553 
Q 372 3047 722 3315 
Q 1072 3584 1716 3584 
Q 2034 3584 2315 3537 
Q 2597 3491 2834 3397 
z
" transform="scale(0.015625)"/>
      <path id="DejaVuSans-74" d="M 1172 4494 
L 1172 3500 
L 2356 3500 
L 2356 3053 
L 1172 3053 
L 1172 1153 
Q 1172 725 1289 603 
Q 1406 481 1766 481 
L 2356 481 
L 2356 0 
L 1766 0 
Q 1100 0 847 248 
Q 594 497 594 1153 
L 594 3053 
L 172 3053 
L 172 3500 
L 594 3500 
L 594 4494 
L 1172 4494 
z
" transform="scale(0.015625)"/>
      <path id="DejaVuSans-20" transform="scale(0.015625)"/>
      <path id="DejaVuSans-72" d="M 2631 2963 
Q 2534 3019 2420 3045 
Q 2306 3072 2169 3072 
Q 1681 3072 1420 2755 
Q 1159 2438 1159 1844 
L 1159 0 
L 581 0 
L 581 3500 
L 1159 3500 
L 1159 2956 
Q 1341 3275 1631 3429 
Q 1922 3584 2338 3584 
Q 2397 3584 2469 3576 
Q 2541 3569 2628 3553 
L 2631 2963 
z
" transform="scale(0.015625)"/>
     </defs>
     <use xlink:href="#DejaVuSans-54"/>
     <use xlink:href="#DejaVuSans-65" x="44.083984"/>
     <use xlink:href="#DejaVuSans-73" x="105.607422"/>
     <use xlink:href="#DejaVuSans-74" x="157.707031"/>
     <use xlink:href="#DejaVuSans-20" x="196.916016"/>
     <use xlink:href="#DejaVuSans-45" x="228.703125"/>
     <use xlink:href="#DejaVuSans-72" x="291.886719"/>
     <use xlink:href="#DejaVuSans-72" x="331.25"/>
     <use xlink:href="#DejaVuSans-6f" x="370.113281"/>
     <use xlink:href="#DejaVuSans-72" x="431.294922"/>
    </g>
   </g>
   <g id="legend_1">
    <g id="patch_7">
     <path d="M 323.38893 92.662344 
L 562.693149 92.662344 
Q 566.093149 92.662344 566.093149 89.262344 
L 566.093149 41.056719 
Q 566.093149 37.656719 562.693149 37.656719 
L 323.38893 37.656719 
Q 319.98893 37.656719 319.98893 41.056719 
L 319.98893 89.262344 
Q 319.98893 92.662344 323.38893 92.662344 
z
" style="fill: #ffffff; opacity: 0.8; stroke: #cccccc; stroke-linejoin: miter"/>
    </g>
    <g id="line2d_35">
     <path d="M 326.78893 51.424062 
L 343.78893 51.424062 
L 360.78893 51.424062 
" style="fill: none; stroke: #6495ed; stroke-width: 3; stroke-linecap: square"/>
    </g>
    <g id="text_19">
     <!-- α = 0.15, r = 0, ϵ = 0 -->
     <g transform="translate(374.38893 57.374062)scale(0.17 -0.17)">
      <defs>
       <path id="DejaVuSans-3b1" d="M 2644 1628 
L 2506 2350 
Q 2366 3091 1809 3091 
Q 1391 3091 1200 2747 
Q 959 2316 959 1747 
Q 959 1059 1194 731 
Q 1431 397 1809 397 
Q 2228 397 2453 1063 
L 2644 1628 
z
M 2966 2584 
L 3275 3500 
L 3788 3500 
L 3147 1603 
L 3272 919 
Q 3300 766 3409 638 
Q 3538 488 3638 488 
L 3913 488 
L 3913 0 
L 3569 0 
Q 3275 0 3013 263 
Q 2884 394 2831 669 
Q 2688 322 2394 50 
Q 2256 -78 1809 -78 
Q 1075 -78 719 397 
Q 353 888 353 1747 
Q 353 2666 750 3097 
Q 1191 3578 1809 3578 
Q 2781 3578 2966 2584 
z
" transform="scale(0.015625)"/>
       <path id="DejaVuSans-3d" d="M 678 2906 
L 4684 2906 
L 4684 2381 
L 678 2381 
L 678 2906 
z
M 678 1631 
L 4684 1631 
L 4684 1100 
L 678 1100 
L 678 1631 
z
" transform="scale(0.015625)"/>
       <path id="DejaVuSans-2c" d="M 750 794 
L 1409 794 
L 1409 256 
L 897 -744 
L 494 -744 
L 750 256 
L 750 794 
z
" transform="scale(0.015625)"/>
       <path id="DejaVuSans-3f5" d="M 3075 2944 
Q 2959 2984 2844 3016 
Q 2534 3097 2203 3097 
Q 1631 3097 1313 2788 
Q 1016 2500 959 1972 
L 3075 1972 
L 3075 1522 
L 959 1522 
Q 1016 994 1313 706 
Q 1631 397 2203 397 
Q 2603 397 2844 478 
L 3075 556 
L 3075 34 
L 2828 -22 
Q 2503 -91 2169 -91 
Q 1331 -91 844 397 
Q 353 884 353 1746 
Q 353 2609 844 3097 
Q 1331 3584 2169 3584 
Q 2484 3584 2828 3516 
Q 2953 3491 3075 3453 
L 3075 2944 
z
" transform="scale(0.015625)"/>
      </defs>
      <use xlink:href="#DejaVuSans-3b1"/>
      <use xlink:href="#DejaVuSans-20" x="65.917969"/>
      <use xlink:href="#DejaVuSans-3d" x="97.705078"/>
      <use xlink:href="#DejaVuSans-20" x="181.494141"/>
      <use xlink:href="#DejaVuSans-30" x="213.28125"/>
      <use xlink:href="#DejaVuSans-2e" x="276.904297"/>
      <use xlink:href="#DejaVuSans-31" x="308.691406"/>
      <use xlink:href="#DejaVuSans-35" x="372.314453"/>
      <use xlink:href="#DejaVuSans-2c" x="435.9375"/>
      <use xlink:href="#DejaVuSans-20" x="467.724609"/>
      <use xlink:href="#DejaVuSans-72" x="499.511719"/>
      <use xlink:href="#DejaVuSans-20" x="540.625"/>
      <use xlink:href="#DejaVuSans-3d" x="572.412109"/>
      <use xlink:href="#DejaVuSans-20" x="656.201172"/>
      <use xlink:href="#DejaVuSans-30" x="687.988281"/>
      <use xlink:href="#DejaVuSans-2c" x="751.611328"/>
      <use xlink:href="#DejaVuSans-20" x="783.398438"/>
      <use xlink:href="#DejaVuSans-3f5" x="815.185547"/>
      <use xlink:href="#DejaVuSans-20" x="876.708984"/>
      <use xlink:href="#DejaVuSans-3d" x="908.496094"/>
      <use xlink:href="#DejaVuSans-20" x="992.285156"/>
      <use xlink:href="#DejaVuSans-30" x="1024.072266"/>
     </g>
    </g>
    <g id="line2d_36">
     <path d="M 326.78893 76.376875 
L 343.78893 76.376875 
L 360.78893 76.376875 
" style="fill: none; stroke: #f08080; stroke-width: 3; stroke-linecap: square"/>
    </g>
    <g id="text_20">
     <!-- α = 0, r = 0, ϵ = 0 -->
     <g transform="translate(374.38893 82.326875)scale(0.17 -0.17)">
      <use xlink:href="#DejaVuSans-3b1"/>
      <use xlink:href="#DejaVuSans-20" x="65.917969"/>
      <use xlink:href="#DejaVuSans-3d" x="97.705078"/>
      <use xlink:href="#DejaVuSans-20" x="181.494141"/>
      <use xlink:href="#DejaVuSans-30" x="213.28125"/>
      <use xlink:href="#DejaVuSans-2c" x="276.904297"/>
      <use xlink:href="#DejaVuSans-20" x="308.691406"/>
      <use xlink:href="#DejaVuSans-72" x="340.478516"/>
      <use xlink:href="#DejaVuSans-20" x="381.591797"/>
      <use xlink:href="#DejaVuSans-3d" x="413.378906"/>
      <use xlink:href="#DejaVuSans-20" x="497.167969"/>
      <use xlink:href="#DejaVuSans-30" x="528.955078"/>
      <use xlink:href="#DejaVuSans-2c" x="592.578125"/>
      <use xlink:href="#DejaVuSans-20" x="624.365234"/>
      <use xlink:href="#DejaVuSans-3f5" x="656.152344"/>
      <use xlink:href="#DejaVuSans-20" x="717.675781"/>
      <use xlink:href="#DejaVuSans-3d" x="749.462891"/>
      <use xlink:href="#DejaVuSans-20" x="833.251953"/>
      <use xlink:href="#DejaVuSans-30" x="865.039062"/>
     </g>
    </g>
   </g>
  </g>
  <g id="axes_2">
   <g id="patch_8">
    <path d="M 617.516226 464.036719 
L 1154.054688 464.036719 
L 1154.054688 29.156719 
L 617.516226 29.156719 
z
" style="fill: #ffffff"/>
   </g>
   <g id="matplotlib.axis_3">
    <g id="xtick_10">
     <g id="line2d_37">
      <path d="M 636.952437 464.036719 
L 636.952437 29.156719 
" clip-path="url(#p66e40c2153)" style="fill: none; stroke: #b0b0b0; stroke-width: 0.8; stroke-linecap: square"/>
     </g>
     <g id="line2d_38">
      <g>
       <use xlink:href="#m32bfdbfc13" x="636.952437" y="464.036719" style="stroke: #000000; stroke-width: 0.8"/>
      </g>
     </g>
     <g id="text_21">
      <!-- 0 -->
      <g transform="translate(632.180562 482.434375)scale(0.15 -0.15)">
       <use xlink:href="#DejaVuSans-30"/>
      </g>
     </g>
    </g>
    <g id="xtick_11">
     <g id="line2d_39">
      <path d="M 698.851198 464.036719 
L 698.851198 29.156719 
" clip-path="url(#p66e40c2153)" style="fill: none; stroke: #b0b0b0; stroke-width: 0.8; stroke-linecap: square"/>
     </g>
     <g id="line2d_40">
      <g>
       <use xlink:href="#m32bfdbfc13" x="698.851198" y="464.036719" style="stroke: #000000; stroke-width: 0.8"/>
      </g>
     </g>
     <g id="text_22">
      <!-- 25 -->
      <g transform="translate(689.307448 482.434375)scale(0.15 -0.15)">
       <use xlink:href="#DejaVuSans-32"/>
       <use xlink:href="#DejaVuSans-35" x="63.623047"/>
      </g>
     </g>
    </g>
    <g id="xtick_12">
     <g id="line2d_41">
      <path d="M 760.749959 464.036719 
L 760.749959 29.156719 
" clip-path="url(#p66e40c2153)" style="fill: none; stroke: #b0b0b0; stroke-width: 0.8; stroke-linecap: square"/>
     </g>
     <g id="line2d_42">
      <g>
       <use xlink:href="#m32bfdbfc13" x="760.749959" y="464.036719" style="stroke: #000000; stroke-width: 0.8"/>
      </g>
     </g>
     <g id="text_23">
      <!-- 50 -->
      <g transform="translate(751.206209 482.434375)scale(0.15 -0.15)">
       <use xlink:href="#DejaVuSans-35"/>
       <use xlink:href="#DejaVuSans-30" x="63.623047"/>
      </g>
     </g>
    </g>
    <g id="xtick_13">
     <g id="line2d_43">
      <path d="M 822.64872 464.036719 
L 822.64872 29.156719 
" clip-path="url(#p66e40c2153)" style="fill: none; stroke: #b0b0b0; stroke-width: 0.8; stroke-linecap: square"/>
     </g>
     <g id="line2d_44">
      <g>
       <use xlink:href="#m32bfdbfc13" x="822.64872" y="464.036719" style="stroke: #000000; stroke-width: 0.8"/>
      </g>
     </g>
     <g id="text_24">
      <!-- 75 -->
      <g transform="translate(813.10497 482.434375)scale(0.15 -0.15)">
       <use xlink:href="#DejaVuSans-37"/>
       <use xlink:href="#DejaVuSans-35" x="63.623047"/>
      </g>
     </g>
    </g>
    <g id="xtick_14">
     <g id="line2d_45">
      <path d="M 884.547482 464.036719 
L 884.547482 29.156719 
" clip-path="url(#p66e40c2153)" style="fill: none; stroke: #b0b0b0; stroke-width: 0.8; stroke-linecap: square"/>
     </g>
     <g id="line2d_46">
      <g>
       <use xlink:href="#m32bfdbfc13" x="884.547482" y="464.036719" style="stroke: #000000; stroke-width: 0.8"/>
      </g>
     </g>
     <g id="text_25">
      <!-- 100 -->
      <g transform="translate(870.231857 482.434375)scale(0.15 -0.15)">
       <use xlink:href="#DejaVuSans-31"/>
       <use xlink:href="#DejaVuSans-30" x="63.623047"/>
       <use xlink:href="#DejaVuSans-30" x="127.246094"/>
      </g>
     </g>
    </g>
    <g id="xtick_15">
     <g id="line2d_47">
      <path d="M 946.446243 464.036719 
L 946.446243 29.156719 
" clip-path="url(#p66e40c2153)" style="fill: none; stroke: #b0b0b0; stroke-width: 0.8; stroke-linecap: square"/>
     </g>
     <g id="line2d_48">
      <g>
       <use xlink:href="#m32bfdbfc13" x="946.446243" y="464.036719" style="stroke: #000000; stroke-width: 0.8"/>
      </g>
     </g>
     <g id="text_26">
      <!-- 125 -->
      <g transform="translate(932.130618 482.434375)scale(0.15 -0.15)">
       <use xlink:href="#DejaVuSans-31"/>
       <use xlink:href="#DejaVuSans-32" x="63.623047"/>
       <use xlink:href="#DejaVuSans-35" x="127.246094"/>
      </g>
     </g>
    </g>
    <g id="xtick_16">
     <g id="line2d_49">
      <path d="M 1008.345004 464.036719 
L 1008.345004 29.156719 
" clip-path="url(#p66e40c2153)" style="fill: none; stroke: #b0b0b0; stroke-width: 0.8; stroke-linecap: square"/>
     </g>
     <g id="line2d_50">
      <g>
       <use xlink:href="#m32bfdbfc13" x="1008.345004" y="464.036719" style="stroke: #000000; stroke-width: 0.8"/>
      </g>
     </g>
     <g id="text_27">
      <!-- 150 -->
      <g transform="translate(994.029379 482.434375)scale(0.15 -0.15)">
       <use xlink:href="#DejaVuSans-31"/>
       <use xlink:href="#DejaVuSans-35" x="63.623047"/>
       <use xlink:href="#DejaVuSans-30" x="127.246094"/>
      </g>
     </g>
    </g>
    <g id="xtick_17">
     <g id="line2d_51">
      <path d="M 1070.243765 464.036719 
L 1070.243765 29.156719 
" clip-path="url(#p66e40c2153)" style="fill: none; stroke: #b0b0b0; stroke-width: 0.8; stroke-linecap: square"/>
     </g>
     <g id="line2d_52">
      <g>
       <use xlink:href="#m32bfdbfc13" x="1070.243765" y="464.036719" style="stroke: #000000; stroke-width: 0.8"/>
      </g>
     </g>
     <g id="text_28">
      <!-- 175 -->
      <g transform="translate(1055.92814 482.434375)scale(0.15 -0.15)">
       <use xlink:href="#DejaVuSans-31"/>
       <use xlink:href="#DejaVuSans-37" x="63.623047"/>
       <use xlink:href="#DejaVuSans-35" x="127.246094"/>
      </g>
     </g>
    </g>
    <g id="xtick_18">
     <g id="line2d_53">
      <path d="M 1132.142526 464.036719 
L 1132.142526 29.156719 
" clip-path="url(#p66e40c2153)" style="fill: none; stroke: #b0b0b0; stroke-width: 0.8; stroke-linecap: square"/>
     </g>
     <g id="line2d_54">
      <g>
       <use xlink:href="#m32bfdbfc13" x="1132.142526" y="464.036719" style="stroke: #000000; stroke-width: 0.8"/>
      </g>
     </g>
     <g id="text_29">
      <!-- 200 -->
      <g transform="translate(1117.826901 482.434375)scale(0.15 -0.15)">
       <use xlink:href="#DejaVuSans-32"/>
       <use xlink:href="#DejaVuSans-30" x="63.623047"/>
       <use xlink:href="#DejaVuSans-30" x="127.246094"/>
      </g>
     </g>
    </g>
    <g id="text_30">
     <!-- Epoch -->
     <g transform="translate(862.81905 500.951562)scale(0.15 -0.15)">
      <use xlink:href="#DejaVuSans-45"/>
      <use xlink:href="#DejaVuSans-70" x="63.183594"/>
      <use xlink:href="#DejaVuSans-6f" x="126.660156"/>
      <use xlink:href="#DejaVuSans-63" x="187.841797"/>
      <use xlink:href="#DejaVuSans-68" x="242.822266"/>
     </g>
    </g>
   </g>
   <g id="matplotlib.axis_4">
    <g id="ytick_8">
     <g id="line2d_55">
      <path d="M 617.516226 388.094156 
L 1154.054688 388.094156 
" clip-path="url(#p66e40c2153)" style="fill: none; stroke: #b0b0b0; stroke-width: 0.8; stroke-linecap: square"/>
     </g>
     <g id="line2d_56">
      <g>
       <use xlink:href="#mba4d178517" x="617.516226" y="388.094156" style="stroke: #000000; stroke-width: 0.8"/>
      </g>
     </g>
     <g id="text_31">
      <!-- 1.5 -->
      <g transform="translate(586.661538 393.792984)scale(0.15 -0.15)">
       <use xlink:href="#DejaVuSans-31"/>
       <use xlink:href="#DejaVuSans-2e" x="63.623047"/>
       <use xlink:href="#DejaVuSans-35" x="95.410156"/>
      </g>
     </g>
    </g>
    <g id="ytick_9">
     <g id="line2d_57">
      <path d="M 617.516226 306.575608 
L 1154.054688 306.575608 
" clip-path="url(#p66e40c2153)" style="fill: none; stroke: #b0b0b0; stroke-width: 0.8; stroke-linecap: square"/>
     </g>
     <g id="line2d_58">
      <g>
       <use xlink:href="#mba4d178517" x="617.516226" y="306.575608" style="stroke: #000000; stroke-width: 0.8"/>
      </g>
     </g>
     <g id="text_32">
      <!-- 2.0 -->
      <g transform="translate(586.661538 312.274436)scale(0.15 -0.15)">
       <use xlink:href="#DejaVuSans-32"/>
       <use xlink:href="#DejaVuSans-2e" x="63.623047"/>
       <use xlink:href="#DejaVuSans-30" x="95.410156"/>
      </g>
     </g>
    </g>
    <g id="ytick_10">
     <g id="line2d_59">
      <path d="M 617.516226 225.05706 
L 1154.054688 225.05706 
" clip-path="url(#p66e40c2153)" style="fill: none; stroke: #b0b0b0; stroke-width: 0.8; stroke-linecap: square"/>
     </g>
     <g id="line2d_60">
      <g>
       <use xlink:href="#mba4d178517" x="617.516226" y="225.05706" style="stroke: #000000; stroke-width: 0.8"/>
      </g>
     </g>
     <g id="text_33">
      <!-- 2.5 -->
      <g transform="translate(586.661538 230.755888)scale(0.15 -0.15)">
       <use xlink:href="#DejaVuSans-32"/>
       <use xlink:href="#DejaVuSans-2e" x="63.623047"/>
       <use xlink:href="#DejaVuSans-35" x="95.410156"/>
      </g>
     </g>
    </g>
    <g id="ytick_11">
     <g id="line2d_61">
      <path d="M 617.516226 143.538512 
L 1154.054688 143.538512 
" clip-path="url(#p66e40c2153)" style="fill: none; stroke: #b0b0b0; stroke-width: 0.8; stroke-linecap: square"/>
     </g>
     <g id="line2d_62">
      <g>
       <use xlink:href="#mba4d178517" x="617.516226" y="143.538512" style="stroke: #000000; stroke-width: 0.8"/>
      </g>
     </g>
     <g id="text_34">
      <!-- 3.0 -->
      <g transform="translate(586.661538 149.23734)scale(0.15 -0.15)">
       <use xlink:href="#DejaVuSans-33"/>
       <use xlink:href="#DejaVuSans-2e" x="63.623047"/>
       <use xlink:href="#DejaVuSans-30" x="95.410156"/>
      </g>
     </g>
    </g>
    <g id="ytick_12">
     <g id="line2d_63">
      <path d="M 617.516226 62.019964 
L 1154.054688 62.019964 
" clip-path="url(#p66e40c2153)" style="fill: none; stroke: #b0b0b0; stroke-width: 0.8; stroke-linecap: square"/>
     </g>
     <g id="line2d_64">
      <g>
       <use xlink:href="#mba4d178517" x="617.516226" y="62.019964" style="stroke: #000000; stroke-width: 0.8"/>
      </g>
     </g>
     <g id="text_35">
      <!-- 3.5 -->
      <g transform="translate(586.661538 67.718792)scale(0.15 -0.15)">
       <use xlink:href="#DejaVuSans-33"/>
       <use xlink:href="#DejaVuSans-2e" x="63.623047"/>
       <use xlink:href="#DejaVuSans-35" x="95.410156"/>
      </g>
     </g>
    </g>
   </g>
   <g id="line2d_65">
    <path d="M 677.915469 -1 
L 679.043595 3.642959 
L 681.519545 16.61646 
L 683.995495 25.085518 
L 686.471446 35.900976 
L 688.947396 41.025758 
L 691.423347 49.826746 
L 696.375248 72.930045 
L 698.851198 86.034538 
L 701.327149 83.71879 
L 703.803099 88.808456 
L 706.279049 84.02553 
L 708.755 84.600002 
L 711.23095 88.659905 
L 713.706901 98.577386 
L 716.182851 117.339597 
L 718.658802 116.935744 
L 721.134752 115.778389 
L 723.610703 110.654554 
L 726.086653 126.60958 
L 728.562603 132.265611 
L 731.038554 136.631011 
L 733.514504 135.909502 
L 735.990455 137.119751 
L 738.466405 137.873172 
L 740.942356 135.442957 
L 743.418306 128.003456 
L 745.894257 130.72777 
L 748.370207 125.832062 
L 750.846157 123.402473 
L 753.322108 119.975151 
L 755.798058 132.517814 
L 758.274009 149.623413 
L 760.749959 150.818356 
L 763.22591 141.893352 
L 765.70186 131.215514 
L 768.177811 137.73157 
L 770.653761 141.823074 
L 773.129711 129.750171 
L 775.605662 122.133645 
L 778.081612 126.752288 
L 780.557563 139.055605 
L 783.033513 146.352115 
L 785.509464 135.737279 
L 787.985414 148.442951 
L 790.461365 150.995545 
L 792.937315 146.65544 
L 795.413265 144.106122 
L 797.889216 132.648419 
L 800.365166 144.912097 
L 802.841117 145.651526 
L 805.317067 152.076095 
L 807.793018 155.378498 
L 810.268968 154.795909 
L 812.744919 158.274486 
L 815.220869 152.680227 
L 817.696819 143.658144 
L 820.17277 123.410807 
L 822.64872 129.550128 
L 825.124671 133.483268 
L 827.600621 158.128502 
L 830.076572 162.087525 
L 832.552522 162.90134 
L 835.028473 159.821528 
L 837.504423 189.530146 
L 839.980373 235.5423 
L 842.456324 277.490943 
L 844.932274 287.646179 
L 847.408225 291.530864 
L 849.884175 297.291417 
L 854.836076 303.298377 
L 857.312027 306.630926 
L 859.787977 307.929533 
L 862.263927 308.625174 
L 864.739878 307.43209 
L 867.215828 311.136531 
L 869.691779 313.498461 
L 872.167729 314.81674 
L 874.64368 312.852269 
L 877.11963 311.710954 
L 879.595581 312.365294 
L 882.071531 312.754609 
L 884.547482 312.570575 
L 887.023432 313.425792 
L 889.499382 313.89818 
L 891.975333 318.670415 
L 894.451283 320.209454 
L 899.403184 316.727448 
L 901.879135 315.827767 
L 904.355085 321.942153 
L 906.831036 325.893023 
L 909.306986 328.650365 
L 911.782936 322.36867 
L 914.258887 317.212825 
L 916.734837 314.620179 
L 919.210788 318.180828 
L 921.686738 322.10701 
L 924.162689 321.010222 
L 926.638639 323.72463 
L 929.11459 321.204064 
L 931.59054 320.898211 
L 934.06649 317.762591 
L 936.542441 330.752335 
L 941.494342 362.042108 
L 943.970292 364.581473 
L 946.446243 366.832941 
L 948.922193 367.67002 
L 951.398144 368.311229 
L 953.874094 367.549362 
L 956.350044 368.903511 
L 958.825995 369.240763 
L 963.777896 369.088566 
L 966.253846 369.519113 
L 968.729797 370.253066 
L 971.205747 369.943427 
L 973.681698 369.992479 
L 976.157648 369.392356 
L 981.109549 367.813609 
L 983.585499 368.752272 
L 986.06145 369.871396 
L 988.5374 370.804697 
L 993.489301 369.2289 
L 995.965252 368.026626 
L 998.441202 368.763098 
L 1000.917152 369.890417 
L 1003.393103 370.725683 
L 1005.869053 369.732183 
L 1008.345004 369.052132 
L 1010.820954 368.027501 
L 1013.296905 367.678872 
L 1015.772855 367.692731 
L 1018.248806 367.354621 
L 1020.724756 367.968589 
L 1023.200706 366.888211 
L 1025.676657 366.95635 
L 1028.152607 365.967738 
L 1030.628558 365.779574 
L 1033.104508 365.910723 
L 1035.580459 365.078046 
L 1038.056409 365.540421 
L 1043.00831 364.986246 
L 1045.48426 364.282605 
L 1047.960211 362.623963 
L 1050.436161 363.180075 
L 1052.912112 363.368239 
L 1055.388062 363.998737 
L 1057.864013 363.021984 
L 1060.339963 361.815274 
L 1062.815914 361.128825 
L 1065.291864 361.311609 
L 1067.767814 362.566524 
L 1070.243765 362.56626 
L 1072.719715 361.569858 
L 1075.195666 360.026168 
L 1077.671616 360.486886 
L 1080.147567 362.148981 
L 1082.623517 360.87045 
L 1085.099468 360.38431 
L 1087.575418 358.273303 
L 1090.051368 359.751758 
L 1092.527319 359.879689 
L 1097.47922 359.720855 
L 1099.95517 358.962143 
L 1102.431121 358.628992 
L 1104.907071 357.031638 
L 1107.383022 355.179078 
L 1109.858972 354.503385 
L 1112.334922 355.967426 
L 1114.810873 357.6923 
L 1117.286823 359.615631 
L 1119.762774 356.871061 
L 1122.238724 354.883076 
L 1124.714675 351.643876 
L 1127.190625 350.833248 
L 1129.666576 350.89881 
L 1129.666576 350.89881 
" clip-path="url(#p66e40c2153)" style="fill: none; stroke: #6495ed; stroke-width: 3; stroke-linecap: square"/>
   </g>
   <g id="line2d_66">
    <path d="M 641.904338 71.573259 
L 644.380288 117.88454 
L 649.332189 188.978363 
L 654.28409 236.21384 
L 656.760041 236.258313 
L 659.235991 246.228115 
L 661.711941 247.842942 
L 664.187892 255.390528 
L 666.663842 267.397939 
L 669.139793 272.373414 
L 671.615743 280.437911 
L 674.091694 270.843058 
L 676.567644 269.82036 
L 679.043595 264.539327 
L 681.519545 275.603504 
L 683.995495 274.611355 
L 686.471446 286.923285 
L 688.947396 275.998401 
L 691.423347 294.064832 
L 693.899297 285.134221 
L 696.375248 281.390246 
L 698.851198 277.045475 
L 701.327149 272.141629 
L 703.803099 292.757754 
L 706.279049 291.170209 
L 708.755 296.115062 
L 711.23095 282.868908 
L 713.706901 282.278733 
L 716.182851 297.080798 
L 718.658802 293.860499 
L 721.134752 295.807935 
L 723.610703 284.791539 
L 726.086653 295.171979 
L 728.562603 283.915556 
L 731.038554 276.324123 
L 733.514504 280.676143 
L 735.990455 291.145293 
L 738.466405 311.159762 
L 740.942356 320.009488 
L 743.418306 327.024565 
L 745.894257 309.775996 
L 748.370207 286.669682 
L 750.846157 279.075389 
L 753.322108 279.096061 
L 755.798058 297.089906 
L 758.274009 305.027202 
L 760.749959 321.367585 
L 763.22591 302.078739 
L 765.70186 292.146501 
L 768.177811 294.599438 
L 770.653761 306.860639 
L 773.129711 315.056427 
L 775.605662 303.634876 
L 778.081612 303.445964 
L 780.557563 295.959182 
L 783.033513 293.865829 
L 785.509464 279.257888 
L 787.985414 281.29482 
L 790.461365 271.077517 
L 792.937315 287.780646 
L 795.413265 287.959997 
L 797.889216 292.983434 
L 800.365166 298.352609 
L 802.841117 310.343077 
L 805.317067 318.80422 
L 807.793018 300.742692 
L 810.268968 281.383941 
L 812.744919 282.829309 
L 815.220869 296.010889 
L 817.696819 283.462525 
L 820.17277 277.616143 
L 822.64872 259.992299 
L 827.600621 287.724269 
L 830.076572 306.227838 
L 832.552522 302.688008 
L 835.028473 289.583985 
L 837.504423 331.549674 
L 839.980373 387.826056 
L 842.456324 436.858669 
L 844.932274 436.155403 
L 847.408225 433.791598 
L 849.884175 429.457729 
L 852.360126 426.583074 
L 854.836076 422.638264 
L 857.312027 419.765621 
L 862.263927 406.565655 
L 864.739878 400.991648 
L 867.215828 398.048364 
L 869.691779 396.342873 
L 872.167729 392.791483 
L 874.64368 390.131033 
L 877.11963 383.373695 
L 884.547482 372.570078 
L 889.499382 369.722428 
L 894.451283 366.869321 
L 896.927234 362.820138 
L 899.403184 361.740154 
L 901.879135 357.076067 
L 904.355085 354.324698 
L 906.831036 350.265757 
L 909.306986 349.172971 
L 911.782936 346.295253 
L 914.258887 348.060279 
L 916.734837 342.410989 
L 919.210788 341.409322 
L 921.686738 336.13922 
L 924.162689 335.319764 
L 926.638639 337.113485 
L 929.11459 339.545981 
L 931.59054 338.73312 
L 934.06649 333.604367 
L 936.542441 345.187061 
L 939.018391 358.987931 
L 941.494342 370.991277 
L 946.446243 363.363827 
L 948.922193 359.693656 
L 951.398144 357.169811 
L 956.350044 353.376242 
L 958.825995 350.271701 
L 961.301945 346.845106 
L 963.777896 344.332488 
L 966.253846 342.89763 
L 968.729797 340.788033 
L 971.205747 339.546838 
L 973.681698 337.185994 
L 976.157648 335.691395 
L 978.633598 333.103449 
L 981.109549 331.267638 
L 983.585499 329.715685 
L 986.06145 327.577457 
L 991.013351 322.478043 
L 993.489301 320.641715 
L 995.965252 320.706607 
L 998.441202 318.56456 
L 1000.917152 317.394966 
L 1003.393103 315.002729 
L 1005.869053 313.149557 
L 1008.345004 311.010591 
L 1010.820954 309.230073 
L 1013.296905 308.32873 
L 1015.772855 306.451002 
L 1018.248806 305.145603 
L 1020.724756 304.484311 
L 1023.200706 303.251909 
L 1025.676657 302.148326 
L 1028.152607 300.541485 
L 1030.628558 299.574765 
L 1033.104508 296.93006 
L 1035.580459 295.397647 
L 1038.056409 294.807129 
L 1040.53236 295.758005 
L 1043.00831 294.684694 
L 1045.48426 293.27649 
L 1047.960211 290.191592 
L 1050.436161 289.383201 
L 1052.912112 287.775734 
L 1055.388062 288.040422 
L 1057.864013 285.388617 
L 1060.339963 284.398063 
L 1062.815914 281.355302 
L 1065.291864 281.130952 
L 1067.767814 281.201323 
L 1070.243765 282.001593 
L 1072.719715 281.298371 
L 1075.195666 279.349247 
L 1077.671616 279.390053 
L 1080.147567 278.568015 
L 1082.623517 278.341798 
L 1085.099468 275.442606 
L 1090.051368 272.116182 
L 1092.527319 273.087153 
L 1095.003269 272.201731 
L 1099.95517 269.609447 
L 1102.431121 269.715807 
L 1104.907071 269.402304 
L 1107.383022 266.824606 
L 1109.858972 265.319122 
L 1112.334922 264.910734 
L 1114.810873 266.742588 
L 1117.286823 267.229182 
L 1119.762774 266.103069 
L 1122.238724 263.094266 
L 1124.714675 259.659657 
L 1127.190625 261.137194 
L 1129.666576 260.867704 
L 1129.666576 260.867704 
" clip-path="url(#p66e40c2153)" style="fill: none; stroke: #f08080; stroke-width: 3; stroke-linecap: square"/>
   </g>
   <g id="patch_9">
    <path d="M 617.516226 464.036719 
L 617.516226 29.156719 
" style="fill: none; stroke: #000000; stroke-width: 0.8; stroke-linejoin: miter; stroke-linecap: square"/>
   </g>
   <g id="patch_10">
    <path d="M 1154.054688 464.036719 
L 1154.054688 29.156719 
" style="fill: none; stroke: #000000; stroke-width: 0.8; stroke-linejoin: miter; stroke-linecap: square"/>
   </g>
   <g id="patch_11">
    <path d="M 617.516226 464.036719 
L 1154.054688 464.036719 
" style="fill: none; stroke: #000000; stroke-width: 0.8; stroke-linejoin: miter; stroke-linecap: square"/>
   </g>
   <g id="patch_12">
    <path d="M 617.516226 29.156719 
L 1154.054688 29.156719 
" style="fill: none; stroke: #000000; stroke-width: 0.8; stroke-linejoin: miter; stroke-linecap: square"/>
   </g>
   <g id="text_36">
    <!-- Test Loss -->
    <g transform="translate(838.742175 23.156719)scale(0.21 -0.21)">
     <defs>
      <path id="DejaVuSans-4c" d="M 628 4666 
L 1259 4666 
L 1259 531 
L 3531 531 
L 3531 0 
L 628 0 
L 628 4666 
z
" transform="scale(0.015625)"/>
     </defs>
     <use xlink:href="#DejaVuSans-54"/>
     <use xlink:href="#DejaVuSans-65" x="44.083984"/>
     <use xlink:href="#DejaVuSans-73" x="105.607422"/>
     <use xlink:href="#DejaVuSans-74" x="157.707031"/>
     <use xlink:href="#DejaVuSans-20" x="196.916016"/>
     <use xlink:href="#DejaVuSans-4c" x="228.703125"/>
     <use xlink:href="#DejaVuSans-6f" x="282.666016"/>
     <use xlink:href="#DejaVuSans-73" x="343.847656"/>
     <use xlink:href="#DejaVuSans-73" x="395.947266"/>
    </g>
   </g>
  </g>
 </g>
 <defs>
  <clipPath id="p4e6ae8074d">
   <rect x="38.054688" y="29.156719" width="536.538462" height="434.88"/>
  </clipPath>
  <clipPath id="p66e40c2153">
   <rect x="617.516226" y="29.156719" width="536.538462" height="434.88"/>
  </clipPath>
 </defs>
</svg>
